<?xml version="1.0" encoding="utf-8"?>
<!-- Generator: Adobe Illustrator 24.0.2, SVG Export Plug-In . SVG Version: 6.00 Build 0)  -->
<svg version="1.1" id="Capa_1" xmlns="http://www.w3.org/2000/svg" xmlns:xlink="http://www.w3.org/1999/xlink" x="0px" y="0px"
	 viewBox="0 0 20 20" style="enable-background:new 0 0 20 20;" xml:space="preserve">
<style type="text/css">
	.st0{fill:#8DBA30;}
</style>
<g>
	<path class="st0" d="M19.9,4.4c0.1,0.4,0.1,0.8,0,1.2c-0.1,0.4-0.3,0.7-0.6,1L8.5,16.8c-0.5,0.4-1,0.7-1.7,0.6s-1.2-0.3-1.6-0.7
		L0.7,12c-0.3-0.3-0.5-0.7-0.6-1.1C0,10.6,0,10.2,0.1,9.8C0.2,9.4,0.4,9,0.7,8.7C1,8.4,1.4,8.2,1.8,8.1C2.2,8,2.6,8,3,8.1
		C3.4,8.2,3.7,8.5,4,8.8l2.9,3L16,3.2c0.3-0.3,0.7-0.5,1.1-0.6s0.8-0.1,1.2,0c0.4,0.1,0.7,0.3,1,0.6C19.7,3.6,19.8,4,19.9,4.4z"/>
</g>
</svg>
